<svg width="24" height="22" viewBox="0 0 24 22" fill="none" xmlns="http://www.w3.org/2000/svg">
<g filter="url(#filter0_d_1156_760)">
<path d="M11.9688 0C6.44875 0 1.96875 4.48 1.96875 10C1.96875 15.52 6.44875 20 11.9688 20C17.4888 20 21.9688 15.52 21.9688 10C21.9688 4.48 17.4988 0 11.9688 0ZM14.9688 12.23L12.0687 13.9C11.7087 14.11 11.3088 14.21 10.9187 14.21C10.5188 14.21 10.1287 14.11 9.76875 13.9C9.04875 13.48 8.61875 12.74 8.61875 11.9V8.55C8.61875 7.72 9.04875 6.97 9.76875 6.55C10.4888 6.13 11.3487 6.13 12.0787 6.55L14.9787 8.22C15.6987 8.64 16.1287 9.38 16.1287 10.22C16.1287 11.06 15.6987 11.81 14.9688 12.23Z" fill="#5D50C6"/>
<path d="M9.51681 6.11811L9.51683 6.1181C10.3936 5.60668 11.4447 5.60841 12.328 6.11661L12.3282 6.11671L15.2282 7.78671L15.2306 7.7881C16.1031 8.29705 16.6287 9.20086 16.6287 10.22C16.6287 11.2375 16.1043 12.1534 15.2183 12.6633C15.2183 12.6633 15.2182 12.6633 15.2182 12.6634L12.3206 14.3319C12.3202 14.3321 12.3198 14.3324 12.3194 14.3326C11.8801 14.5886 11.3931 14.71 10.9187 14.71C10.433 14.71 9.95553 14.5878 9.51681 14.3319V6.11811ZM9.51681 6.11811C8.64329 6.62766 8.11875 7.54207 8.11875 8.55V11.9C8.11875 12.9191 8.64433 13.8229 9.51679 14.3319L9.51681 6.11811ZM2.46875 10C2.46875 4.75614 6.72489 0.5 11.9688 0.5C17.2223 0.5 21.4688 4.75582 21.4688 10C21.4688 15.2439 17.2127 19.5 11.9688 19.5C6.72489 19.5 2.46875 15.2439 2.46875 10Z" stroke="black"/>
</g>
<defs>
<filter id="filter0_d_1156_760" x="-2.03125" y="0" width="28" height="28" filterUnits="userSpaceOnUse" color-interpolation-filters="sRGB">
<feFlood flood-opacity="0" result="BackgroundImageFix"/>
<feColorMatrix in="SourceAlpha" type="matrix" values="0 0 0 0 0 0 0 0 0 0 0 0 0 0 0 0 0 0 127 0" result="hardAlpha"/>
<feOffset dy="4"/>
<feGaussianBlur stdDeviation="2"/>
<feComposite in2="hardAlpha" operator="out"/>
<feColorMatrix type="matrix" values="0 0 0 0 0 0 0 0 0 0 0 0 0 0 0 0 0 0 0.25 0"/>
<feBlend mode="normal" in2="BackgroundImageFix" result="effect1_dropShadow_1156_760"/>
<feBlend mode="normal" in="SourceGraphic" in2="effect1_dropShadow_1156_760" result="shape"/>
</filter>
</defs>
</svg>
