<svg width="20" height="20" viewBox="0 0 20 20" fill="none" xmlns="http://www.w3.org/2000/svg">
<path d="M15.9184 12.32C15.6594 12.571 15.5404 12.934 15.5994 13.29L16.4884 18.21C16.5634 18.627 16.3874 19.049 16.0384 19.29C15.6964 19.54 15.2414 19.57 14.8684 19.37L10.4394 17.06C10.2854 16.978 10.1144 16.934 9.9394 16.929H9.6684C9.5744 16.943 9.4824 16.973 9.3984 17.019L4.96839 19.34C4.74939 19.45 4.50139 19.489 4.25839 19.45C3.66639 19.338 3.27139 18.774 3.36839 18.179L4.25839 13.259C4.31739 12.9 4.19839 12.535 3.93939 12.28L0.328387 8.77998C0.0263874 8.48698 -0.0786124 8.04698 0.0593876 7.65C0.193388 7.254 0.535388 6.965 0.948388 6.9L5.91839 6.179C6.29639 6.14 6.62839 5.91 6.79839 5.57L8.9884 1.08C9.0404 0.98 9.1074 0.888 9.1884 0.81L9.2784 0.74C9.3254 0.688 9.3794 0.645 9.4394 0.61L9.5484 0.57L9.7184 0.5H10.1394C10.5154 0.539 10.8464 0.764 11.0194 1.1L13.2384 5.57C13.3984 5.897 13.7094 6.124 14.0684 6.179L19.0384 6.9C19.4584 6.96 19.8094 7.25 19.9484 7.65C20.0794 8.05098 19.9664 8.49098 19.6584 8.77998L15.9184 12.32Z" fill="#FF5722"/>
</svg>
