<svg width="142" height="40" viewBox="0 0 142 40" fill="none" xmlns="http://www.w3.org/2000/svg">
<path fill-rule="evenodd" clip-rule="evenodd" d="M8.55273 3.59787C7.12207 4.59823 5.82837 5.78098 4.70532 7.1124C9.29462 6.68633 15.1252 7.38204 21.8944 10.7667C29.123 14.3809 34.9438 14.5031 38.9948 13.7217C38.6272 12.6088 38.1644 11.5392 37.6163 10.5224C32.979 11.0115 27.034 10.3641 20.1056 6.89998C15.706 4.70018 11.8278 3.79401 8.55273 3.59787ZM34.9074 6.66665C31.2453 2.575 25.9234 0 20 0C18.2605 0 16.5727 0.222107 14.9637 0.63948C17.1429 1.23409 19.4579 2.10399 21.8944 3.32227C26.967 5.85853 31.3464 6.67516 34.9074 6.66665ZM39.8609 17.6281C34.9669 18.5945 28.2088 18.396 20.1056 14.3444C12.53 10.5566 6.50043 10.6043 2.4339 11.508C2.224 11.5546 2.01904 11.6036 1.81903 11.6546C1.28662 12.8125 0.861634 14.0301 0.556702 15.2945C0.882386 15.2075 1.21893 15.1248 1.56616 15.0476C6.49957 13.9513 13.4701 13.9989 21.8944 18.2111C29.4701 21.9989 35.4996 21.9512 39.5662 21.0475C39.7055 21.0166 39.8428 20.9846 39.9778 20.9516C39.9926 20.6363 40 20.319 40 20C40 19.1975 39.9528 18.406 39.8609 17.6281ZM39.3248 25.1723C34.4783 26.0196 27.917 25.6944 20.1056 21.7888C12.53 18.001 6.50043 18.0487 2.4339 18.9524C1.53125 19.1529 0.719239 19.3972 0.00293 19.6551C0.000977 19.7698 0 19.8848 0 20C0 31.0457 8.95429 40 20 40C29.2571 40 37.0453 33.7109 39.3248 25.1723Z" fill="url(#paint0_linear_1156_1659)"/>
<path d="M70.736 15.608V11.984H56.456V15.608H61.688V29H65.48V15.608H70.736ZM78.5045 17.072C78.2645 17 77.9045 16.952 77.5445 16.952C76.5845 16.952 75.0725 17.336 74.4485 18.68V17.072H70.9205V29H74.5685V23.792C74.5685 21.416 75.8885 20.552 77.3525 20.552C77.7125 20.552 78.0965 20.576 78.5045 20.672V17.072ZM80.0911 25.712C80.0911 27.608 81.6031 29.336 84.2191 29.336C85.8031 29.336 86.9551 28.664 87.5791 27.656C87.5791 28.472 87.6751 28.904 87.6991 29H90.9871C90.9631 28.88 90.8431 28.088 90.8431 27.152V21.32C90.8431 18.872 89.4271 16.712 85.5631 16.712C82.0591 16.712 80.4751 18.968 80.3311 20.672L83.4991 21.32C83.5711 20.432 84.2671 19.568 85.5391 19.568C86.6911 19.568 87.2911 20.168 87.2911 20.864C87.2911 21.272 87.0751 21.584 86.4271 21.68L83.6191 22.112C81.6511 22.4 80.0911 23.6 80.0911 25.712ZM85.1071 26.696C84.0991 26.696 83.6911 26.096 83.6911 25.472C83.6911 24.632 84.2671 24.272 85.0351 24.152L87.2911 23.792V24.32C87.2911 26.168 86.1871 26.696 85.1071 26.696ZM105.321 17.072H101.481L98.9366 24.488L96.1766 17.072H92.2166L97.1126 29H100.785L105.321 17.072ZM110.826 29V11.624H107.178V29H110.826ZM119.518 26C118.15 26 116.83 25.016 116.83 23.024C116.83 21.008 118.15 20.072 119.518 20.072C120.91 20.072 122.206 21.008 122.206 23.024C122.206 25.04 120.91 26 119.518 26ZM119.518 16.712C115.965 16.712 113.182 19.328 113.182 23.024C113.182 26.72 115.965 29.36 119.518 29.36C123.094 29.36 125.854 26.72 125.854 23.024C125.854 19.328 123.094 16.712 119.518 16.712ZM127.362 29.672C127.698 31.808 129.882 33.92 133.314 33.92C137.778 33.92 139.698 30.944 139.698 27.512V17.072H136.218V18.344C135.882 17.72 134.85 16.856 132.906 16.856C129.642 16.856 127.362 19.544 127.362 22.688C127.362 26 129.738 28.496 132.906 28.496C134.634 28.496 135.666 27.8 136.098 27.152V27.704C136.098 29.864 134.97 30.752 133.146 30.752C131.778 30.752 130.818 29.912 130.578 28.76L127.362 29.672ZM133.578 25.328C132.114 25.328 131.01 24.32 131.01 22.688C131.01 21.056 132.21 20.048 133.578 20.048C134.946 20.048 136.122 21.056 136.122 22.688C136.122 24.32 135.066 25.328 133.578 25.328Z" fill="#191825"/>
<defs>
<linearGradient id="paint0_linear_1156_1659" x1="36" y1="43.2" x2="-3.73321" y2="35.5931" gradientUnits="userSpaceOnUse">
<stop stop-color="#5D50C6"/>
<stop offset="1" stop-color="#F85E9F"/>
</linearGradient>
</defs>
</svg>
