<svg width="32" height="32" viewBox="0 0 32 32" fill="none" xmlns="http://www.w3.org/2000/svg">
<path d="M16 32C24.8366 32 32 24.8366 32 16C32 7.16344 24.8366 0 16 0C7.16344 0 0 7.16344 0 16C0 24.8366 7.16344 32 16 32Z" fill="#5D50C6"/>
<path d="M20.8 8.19922H11.2C9.53334 8.19922 8.20001 9.53255 8.20001 11.1992V20.7992C8.20001 22.4659 9.53334 23.7992 11.2 23.7992H20.8C22.4667 23.7992 23.8 22.4659 23.8 20.7992V11.1992C23.8 9.53255 22.4667 8.19922 20.8 8.19922ZM21.6667 9.99922H22V12.6659H19.3334V9.99922H21.6667ZM13.8 14.3992C14.2667 13.7326 15.1334 13.2659 16 13.2659C16.8667 13.2659 17.7334 13.7326 18.2 14.3992C18.5334 14.8659 18.7334 15.3992 18.7334 15.9992C18.7334 17.5325 17.4667 18.7326 16 18.7326C14.5334 18.7326 13.2667 17.5326 13.2667 15.9992C13.2667 15.3992 13.4667 14.8659 13.8 14.3992ZM22.2667 20.7992C22.2667 21.5992 21.6 22.2659 20.8 22.2659H11.2C10.4 22.2659 9.73335 21.5992 9.73335 20.7992V14.3992H12.0667C11.8667 14.8659 11.7334 15.4659 11.7334 15.9992C11.7334 18.3326 13.6667 20.2659 16 20.2659C18.3334 20.2659 20.2667 18.3326 20.2667 15.9992C20.2667 15.4659 20.1333 14.8659 19.9334 14.3992H22.2667L22.2667 20.7992Z" fill="white"/>
</svg>
