<svg width="32" height="32" viewBox="0 0 32 32" fill="none" xmlns="http://www.w3.org/2000/svg">
<path d="M16 32C24.8366 32 32 24.8366 32 16C32 7.16344 24.8366 0 16 0C7.16344 0 0 7.16344 0 16C0 24.8366 7.16344 32 16 32Z" fill="#5D50C6"/>
<path d="M25.8006 11.4985C25.1149 11.8026 24.3774 12.0082 23.6038 12.1C24.3936 11.6269 24.9997 10.8782 25.2858 9.98459C24.5468 10.423 23.7279 10.741 22.8572 10.9124C22.1595 10.1694 21.1655 9.70508 20.0649 9.70508C17.9532 9.70508 16.2404 11.4178 16.2404 13.5295C16.2404 13.8293 16.2744 14.1211 16.34 14.4011C13.1616 14.2417 10.3433 12.7192 8.45693 10.4047C8.12779 10.9694 7.93898 11.6269 7.93898 12.3276C7.93898 13.6542 8.61465 14.8253 9.64029 15.5109C9.01367 15.4912 8.42356 15.3193 7.90817 15.032C7.90789 15.0483 7.90789 15.0646 7.90789 15.0805C7.90789 16.9336 9.22672 18.4792 10.9759 18.8303C10.6554 18.9181 10.3168 18.9646 9.96857 18.9646C9.72157 18.9646 9.48228 18.9409 9.24897 18.8964C9.73555 20.4155 11.1476 21.5213 12.8216 21.5523C11.5124 22.5783 9.86361 23.1895 8.07132 23.1895C7.76328 23.1895 7.45811 23.1715 7.15948 23.1359C8.8511 24.2214 10.8619 24.8543 13.0215 24.8543C20.0561 24.8543 23.903 19.0268 23.903 13.9725C23.903 13.8068 23.8993 13.6416 23.8919 13.4779C24.6397 12.9388 25.288 12.2655 25.8006 11.4985Z" fill="#F1F2F2"/>
</svg>
